<svg width="14.003" height="30" xmlns="http://www.w3.org/2000/svg"><path d="M8.261.057a6.089 6.089 0 0 0-3.646 1.488c-.967.893-1.46 2.196-1.561 3.489-.022.61-.032 1.222-.03 1.833 0 .652.007 1.304.007 1.956 0 .372-.002.743-.009 1.114-.285.003-.57.004-.855.004-.722 0-1.444-.006-2.165.003 0 1.587.002 3.174-.001 4.762l-.001.28c.35.005.7.007 1.05.007l1.163-.002c.27 0 .54.001.809.004.006 1.287.009 2.575.008 3.862 0 1.93-.004 3.86-.004 5.79-.001 1.784.005 3.568.018 5.352.642-.003 1.284-.004 1.926-.004l2.342.002c.642 0 1.284-.001 1.926-.004.011-3.553.006-7.107.006-10.66 0-1.447 0-2.893.004-4.339.362-.002.725-.003 1.087-.003 1.028 0 2.055.006 3.083-.004.256-1.68.448-3.37.573-5.064-1.574-.006-3.147.003-4.721-.004-.001-1.172-.011-2.344.005-3.516a1.486 1.486 0 0 1 1.503-1.148c.386.002.772.002 1.158.002h2.061a575.049 575.049 0 0 0 .001-5.254c-.922 0-1.845-.004-2.767-.004-.738 0-1.475.003-2.213.009-.253.007-.505.024-.757.05z" fill="#3d58a6" fill-rule="evenodd"/></svg>