<svg width="100.18" height="30.57" xmlns="http://www.w3.org/2000/svg"><g><path d="M8.077 10.68a.42.42 0 0 0 .022-.082.29.29 0 0 0 .003-.04V9.386c0-.204-.102-.357-.204-.51a.641.641 0 0 0-.298-.179.822.822 0 0 0-.285-.022.85.85 0 0 0-.436.151l-5.758 5.758-.611.611a.486.486 0 0 0-.016.017c-.096.105-.194.296-.337.488a1.408 1.408 0 0 0-.157.667v.815c0 .255.051.459.153.663.102.204.255.408.357.509.027.04.056.078.087.114.077.092.182.197.314.316.069.062.139.123.21.182l5.809 5.605.067.039c.15.086.262.132.347.152a.418.418 0 0 0 .186.006.514.514 0 0 0 .304-.17.92.92 0 0 0 .064-.078.645.645 0 0 0 .204-.509v-1.274c0-.051-.051-.153-.051-.204a.137.137 0 0 1-.023-.032c-.02-.035-.03-.08-.045-.118a.166.166 0 0 0-.034-.054c-.042-.042-.05-.085-.08-.127a.208.208 0 0 0-.022-.026l-.152-.153-.153-.153c-.045 0-.09-.038-.168-.116a9.097 9.097 0 0 1-.036-.036.796.796 0 0 1-.031-.017c-.082-.045-.127-.09-.173-.136L2.65 17.132a.837.837 0 0 1-.027-.019c-.132-.095-.177-.191-.177-.287 0-.102.102-.204.204-.306l4.484-4.637a.04.04 0 0 1 0-.007c.01-.049.107-.1.204-.197a.839.839 0 0 1 .053-.071c.082-.098.151-.133.151-.133l.153-.153c.101-.101.152-.152.152-.203a.432.432 0 0 0 .201-.333.12.12 0 0 0 .003-.028c.001-.023.012-.046.024-.074M12.841 30.166v-.152L17.529.611c.017-.068.036-.136.057-.204.062-.201.129-.328.21-.38a.164.164 0 0 1 .09-.027h2.752a.163.163 0 0 1 .158.107c.032.07.045.172.045.301v.153l-4.688 29.402c-.084.335-.167.533-.28.592a.161.161 0 0 1-.076.019h-2.752c-.102 0-.204-.153-.204-.408zM24.765 26.406V4.239c0-.08.004-.162.011-.242.015-.161.044-.288.074-.345a.103.103 0 0 1 .017-.024.46.46 0 0 1 .236-.137.68.68 0 0 1 .172-.016h2.904c.039 0 .078.002.116.007a.48.48 0 0 1 .292.146c.08.08.097.224.101.43l.001.181v8.765c0 .045 0 .09.005.134.006.05.018.093.046.121a.328.328 0 0 0 .021.037c.02.03.041.047.062.055a.173.173 0 0 0 .07.01h5.962c.038 0 .076-.029.114-.064l.038-.038c.045-.09.09-.14.1-.221a.277.277 0 0 0 .002-.034V4.239c0-.225.028-.395.083-.51a.46.46 0 0 1 .306-.238.68.68 0 0 1 .172-.016h2.955c.126 0 .25.034.32.103a.19.19 0 0 1 .037.05c.08.08.097.224.101.43l.001.181v22.167c0 .08-.004.162-.011.242a1.077 1.077 0 0 1-.074.345.103.103 0 0 1-.017.024.457.457 0 0 1-.357.153H35.67c-.045 0-.09 0-.134-.005a.294.294 0 0 1-.078-.018.132.132 0 0 1-.043-.028l-.204-.204a1.279 1.279 0 0 1-.102-.509v-10.09c0-.241-.046-.345-.18-.355l-.023-.001h-6.013c-.153 0-.204.101-.204.356v10.09c0 .066-.003.132-.008.198a.921.921 0 0 1-.075.311.46.46 0 0 1-.306.238.68.68 0 0 1-.172.017h-2.853c-.204 0-.306-.051-.408-.153a.291.291 0 0 1-.071-.133 1.27 1.27 0 0 1-.03-.297l-.001-.181zM45.953 26.396V6.522c0-.254-.051-.407-.204-.407h-3.77a.092.092 0 0 1-.053-.018.263.263 0 0 1-.068-.077.417.417 0 0 1-.068-.174c-.015-.092-.015-.206-.015-.343V4.178c0-.254.035-.438.077-.522a.145.145 0 0 1 .025-.038.475.475 0 0 1 .348-.151l.059-.002h11.262c.07 0 .139.01.204.034.045.016.085.039.114.068a.192.192 0 0 1 .038.051.3.3 0 0 1 .073.14c.024.091.028.208.029.343v1.402c0 .255-.051.459-.102.51a.196.196 0 0 1-.047.033.783.783 0 0 1-.36.069h-3.414c-.153 0-.204.153-.204.407v19.874c0 .09-.005.179-.015.268a.929.929 0 0 1-.09.33.46.46 0 0 1-.284.201.68.68 0 0 1-.172.016h-2.853v-.051c-.126 0-.25-.034-.32-.103a.19.19 0 0 1-.037-.05c-.102-.102-.153-.306-.153-.611zM56.46 26.355v-.102l.917-21.912c0-.104.006-.208.02-.312.033-.218.1-.377.195-.477a.393.393 0 0 1 .295-.128h3.159a.864.864 0 0 1 .51.153c.063.044.116.1.156.166a1.174 1.174 0 0 1 .15.445l3.363 15.593c.001.02.007.04.018.059a.237.237 0 0 0 .033.043h.102c.042 0 .05-.035.05-.076a.88.88 0 0 0 .001-.026L68.792 4.29c.102-.509.357-.815.764-.815h3.21c.14.002.266.084.325.21.09.16.134.404.134.707l.917 21.912v.102c0 .102-.007.203-.022.303-.054.32-.204.506-.473.512a.61.61 0 0 1-.014 0h-2.191a.42.42 0 0 1-.365-.216c-.092-.147-.145-.366-.145-.65l-.611-17.02c0-.018 0-.035-.002-.053-.005-.028-.016-.049-.049-.049h-.013c-.035 0-.042.004-.078.04a4.773 4.773 0 0 0-.011.011L66.55 26.406a1.738 1.738 0 0 1-.102.337c-.129.304-.33.478-.561.478h-1.274a.518.518 0 0 1-.39-.18c-.104-.112-.189-.28-.244-.506a2.155 2.155 0 0 1-.028-.129l-3.516-17.02a.08.08 0 0 0-.025-.059c-.017-.015-.04-.02-.065-.002a.09.09 0 0 0-.012.01v.102l-.662 16.867c0 .093-.004.186-.013.278-.02.194-.064.336-.131.431a.36.36 0 0 1-.315.157h-2.293a.374.374 0 0 1-.36-.227c-.066-.133-.099-.328-.099-.588zM78.464 26.406V4.239c0-.08.004-.162.011-.242.015-.161.044-.288.074-.345a.103.103 0 0 1 .017-.024.458.458 0 0 1 .356-.153h2.956c.07 0 .139.01.204.034.045.016.085.039.114.068a.192.192 0 0 1 .038.051c.08.08.097.224.101.43l.001.181v19.976c0 .254.102.356.255.356h5.198a.77.77 0 0 1 .192.025.445.445 0 0 1 .164.077.32.32 0 0 1 .085.175c.012.062.016.136.017.224v1.436c0 .21-.035.385-.076.498a.596.596 0 0 1-.026.062.336.336 0 0 1-.248.1 2.187 2.187 0 0 1-.108.002h-8.867c-.125 0-.25-.034-.32-.103a.188.188 0 0 1-.036-.05c-.08-.08-.097-.224-.101-.43l-.001-.181zM92.181 24.052v-1.121c0-.051 0-.153.051-.204 0-.051.051-.102.051-.153a.16.16 0 0 0 .048-.094.398.398 0 0 0 .003-.059.11.11 0 0 1 .017-.055.317.317 0 0 1 .038-.049c.015-.017.03-.033.047-.049a.862.862 0 0 0 .065-.07.207.207 0 0 0 .03-.048.093.093 0 0 0 .007-.035c0-.051.051-.051.102-.153l.153-.152c.05 0 .1-.05.152-.153.02-.01.039-.02.058-.032a.257.257 0 0 0 .079-.07.09.09 0 0 0 .016-.051l4.484-4.586a.69.69 0 0 0 .079-.093.439.439 0 0 0 .057-.112.32.32 0 0 0 .017-.101.279.279 0 0 0-.024-.114.465.465 0 0 0-.179-.192l-4.434-4.433a1.413 1.413 0 0 0-.26-.209c-.094-.094-.188-.144-.197-.192a.04.04 0 0 1-.001-.007l-.153-.153a10.113 10.113 0 0 1-.036-.036.616.616 0 0 1-.104-.122.095.095 0 0 1-.013-.045.116.116 0 0 0-.014-.05c-.019-.039-.053-.085-.088-.154a.784.784 0 0 1-.019-.04c-.03-.069-.037-.116-.07-.188a.802.802 0 0 0-.013-.027V9.274a.818.818 0 0 1 .025-.215.606.606 0 0 1 .179-.294.673.673 0 0 1 .356-.195.593.593 0 0 1 .103-.009c.147 0 .295.048.49.19l.019.014 5.809 5.656.612.611a1.697 1.697 0 0 1 .305.459 1.629 1.629 0 0 1 .153.662V17.223a.129.129 0 0 1-.003.024c-.009.048-.04.117-.046.162a.114.114 0 0 0-.002.018c-.051.102-.051.153-.051.204a.116.116 0 0 1-.014.05c-.018.038-.052.083-.086.15a.854.854 0 0 1-.103.157s-.033.066-.1.145a.903.903 0 0 1-.053.059l-.153.152-.204.204-.002.002c-.096.096-.192.146-.201.195a.04.04 0 0 0-.001.007l-5.758 5.758a2.186 2.186 0 0 1-.133.1.938.938 0 0 1-.262.132.577.577 0 0 1-.166.023.828.828 0 0 1-.182-.018.428.428 0 0 1-.276-.186 1.112 1.112 0 0 1-.192-.391.594.594 0 0 1-.012-.118z" fill="#ee4036" fill-rule="evenodd"/></g></svg>