<svg width="24.813" height="30" xmlns="http://www.w3.org/2000/svg"><path d="M24.815 21.36c0-2.661-.143-4.616-.429-5.864a3.082 3.082 0 0 0-.97-1.658 3.05 3.05 0 0 0-1.714-.779 39.882 39.882 0 0 0-1.731-.148 96.435 96.435 0 0 0-4.817-.171 190.349 190.349 0 0 0-5.651.002c-1.863.03-3.448.088-4.755.177a39.12 39.12 0 0 0-1.61.14 3.016 3.016 0 0 0-1.726.779 3.114 3.114 0 0 0-.958 1.658C.153 16.804.002 18.759.002 21.36c0 .619.009 1.237.028 1.855.057 1.726.198 3.063.424 4.01.15.646.47 1.195.958 1.646a2.955 2.955 0 0 0 1.703.79c.579.062 1.159.111 1.74.148 1.33.087 2.935.144 4.816.172.913.012 1.825.018 2.737.018 4.136 0 7.234-.112 9.294-.338a2.955 2.955 0 0 0 1.703-.79c.488-.451.808-1 .958-1.646.094-.406.167-.816.218-1.23.107-.816.178-1.802.211-2.956.016-.56.023-1.12.023-1.679zm-6.429-10.15h1.511V2.864h-1.511v6.383c-.07.101-.148.198-.23.29-.175.193-.346.318-.512.375a.631.631 0 0 1-.205.035.458.458 0 0 1-.146-.021c-.132-.045-.204-.158-.215-.34-.015-.03-.023-.216-.023-.56V2.864h-1.511v6.609c0 .13.003.26.008.39.013.275.04.504.082.688.012.055.027.11.045.163a.995.995 0 0 0 .246.365c.125.114.281.188.468.222.085.015.17.022.256.022.226-.003.448-.056.651-.155.313-.145.638-.392.974-.74l.112-.12v.902zm-6.767 7.24v8.279h-1.511v-.903c-.579.668-1.142 1.006-1.692 1.015a1.377 1.377 0 0 1-.38-.045c-.294-.081-.49-.277-.59-.586a1.5 1.5 0 0 1-.062-.227 4.08 4.08 0 0 1-.066-.615 8.793 8.793 0 0 1-.007-.376V18.45h1.488v6.091c0 .358.008.552.023.585.013.203.105.313.273.335a.701.701 0 0 0 .406-.092 1.72 1.72 0 0 0 .484-.44c.042-.053.083-.107.123-.163V18.45h1.511zM7.784 6.676L9.815-.001H8.123L6.972 4.398 5.777-.001H4.018l.541 1.557.519 1.556c.526 1.549.872 2.737 1.037 3.564v4.534h1.669V6.676zm-.699 8.932v1.579H5.281v9.542h-1.67v-9.542H1.852v-1.579h5.233zm10.218 5.346v3.293c0 .579-.029 1.03-.086 1.354-.017.099-.041.197-.072.293a1.637 1.637 0 0 1-.193.442c-.197.305-.49.472-.879.5a1.683 1.683 0 0 1-.123.005c-.413 0-.817-.19-1.212-.57a3.783 3.783 0 0 1-.322-.354v.812h-1.511V15.608h1.511v3.632c.3-.376.612-.634.935-.775.189-.083.393-.127.599-.127.616 0 1.015.315 1.195.947.104.31.156.854.158 1.63v.039zm5.662 2.91v.203c0 .102 0 .204-.003.306a7.458 7.458 0 0 1-.025.518c-.005.049-.01.098-.017.146a2.113 2.113 0 0 1-.339.902 1.96 1.96 0 0 1-1.428.878c-.124.016-.25.024-.376.024a2.576 2.576 0 0 1-.807-.12 2.075 2.075 0 0 1-1.02-.737c-.296-.38-.453-.97-.472-1.773a7.104 7.104 0 0 1-.002-.167v-2.909c0-.888.151-1.534.451-1.94.362-.49.918-.797 1.525-.844.093-.009.187-.013.28-.013a2.46 2.46 0 0 1 .757.11c.407.131.76.394 1.002.747.125.172.223.363.288.565.124.37.186.828.186 1.375v1.714h-3v1.466a2.55 2.55 0 0 0 .03.406c.08.496.326.744.737.744a.742.742 0 0 0 .285-.052.594.594 0 0 0 .307-.295 1.05 1.05 0 0 0 .084-.252l.012-.145c.007-.09.011-.214.011-.372v-.485h1.534zM14.303 8.503V5.571c0-.229-.012-.457-.038-.684-.06-.51-.194-.92-.4-1.228a2.075 2.075 0 0 0-1.526-.894 2.647 2.647 0 0 0-.269-.014 2.456 2.456 0 0 0-.757.11c-.407.132-.76.394-1.002.747-.316.436-.474 1.091-.474 1.963v2.932c0 .229.012.457.037.684.062.515.197.927.407 1.236l.03.042c.406.572.992.858 1.759.858.299.004.596-.05.874-.161.343-.14.638-.373.886-.697.119-.158.211-.333.274-.52.114-.325.18-.728.195-1.208.003-.078.004-.156.004-.234zm-1.511-3.226v3.519c0 .13-.008.261-.025.391-.074.506-.306.76-.697.76a.602.602 0 0 1-.574-.344c-.099-.19-.148-.46-.148-.807V5.277c0-.133.008-.266.025-.398.044-.307.144-.523.3-.648a.617.617 0 0 1 .397-.126.6.6 0 0 1 .574.35c.098.194.148.468.148.822zm3.023 19.083v-3.541c0-.128-.007-.256-.023-.383-.038-.279-.12-.479-.248-.601a.533.533 0 0 0-.384-.144c-.227 0-.448.095-.663.285a1.78 1.78 0 0 0-.081.076v5.053c.241.24.489.36.744.36a.543.543 0 0 0 .52-.328c.08-.161.124-.382.133-.662l.002-.115zm4.15-2.752h1.489v-.767c0-.13-.008-.261-.026-.39-.048-.322-.163-.542-.343-.659a.675.675 0 0 0-.376-.101c-.496 0-.744.383-.744 1.15v.767z" fill="#3d58a6" fill-rule="evenodd"/></svg>